{"title":"Journey Vina del Mar Chile 2008 DVD PRO","uid":6641114,"size":2788621647,"categoryP":"video","categoryS":"music_videos","magnet":"?xt=urn:btih:2b872083e0653db19ea2df29366794161f6d5206&amp;dn=Journey+Vina+del+Mar+Chile+2008+DVD+PRO&amp;tr=udp%3A%2F%2Ftracker.openbittorrent.com%3A80&amp;tr=udp%3A%2F%2Fopen.demonii.com%3A1337&amp;tr=udp%3A%2F%2Ftracker.coppersurfer.tk%3A6969&amp;tr=udp%3A%2F%2Fexodus.desync.com%3A6969","seeders":0,"leechers":1,"uploader":"thumbsplus","files":12,"time":1314751603,"description":"Original txt:\nJourney\nFestival de ViÃƒÂ±a del Mar, Chile\n2008-02-21\n\nNtsc Dvd - Pro Shot\nTaper: The Stephani Cousins\nSource: Tv Rip (Not HDTV). NOT FROM PPV.\nCaptured using a Samsung Dvd Recorder in SP Mode.\n\nAudio: See Notes\n\nSetlist\n\n01 Intro\n\n02 Separates Ways\n\n03 Rubicon\n\n04 Stone In Love\n\n05 Ask The Lonely\n\n06 Wheel In The Sky\n\n07 Lights\n\n08 Piano Solo\n\n09 Open Arms\n\n10 Only The Young\n\n11 Chain Reaction\n\n12 Edge Of The Blade\n\n13 Faithfully\n\n14 DonÃ‚Â´t Stop BelievinÃ‚Â´\n\nEncore Break One\n\n15 Anyway You Want It\n\nEncore Break Two (Seven Minute Long)\n\n16 LovinÃ‚Â´, TouchinÃ‚Â´, SqueezinÃ‚Â´\n\n\n\nNotes:\n\nThis is the firts show with new leading singer, Arnel Pineda.\n\nIn the firts couple of song, is hard to hear the keyboards and the voice. This is basically\nbecause of the lousy jobs of the local crew on making the audio mix. This problem is fixed\nafter a few songs.\n\nThe chilean host talk way too much after the second set, and is really annoying.ThatÃ‚Â´s why\nwe made separate tracks for all the parts were he talks. We would like to take this oportunity\nto say that most people here in Chile are not like this, and that this guy is mentally ill.\n\nExcellent show. Arnel is an amazing singer. Hope you guys enjoy it as much as we did.\n\nTHIS RELEASE IS BROUGHT TO YOU BY THE STEPHANI COUSINS!!!\n\nExcellent quality\nTV Broadcast\n\nInfo First VOB\nNTSC\nArtwork, original txt and fingerprints included\n\nGeneral\nComplete name : F:\\Journey Vina del Mar Chile 2008 DVD PRO\\VIDEO_TS\\VTS_01_1.VOB\nFormat : MPEG-PS\nFile size : 1 023 MiB\nDuration : 32mn 49s\nOverall bit rate : 4 357 Kbps\n\nVideo\nID : 224 (0xE0)\nFormat : MPEG Video\nFormat version : Version 2\nFormat profile : Main@Main\nFormat settings, BVOP : Yes\nFormat settings, Matrix : Custom\nFormat settings, GOP : M=3, N=15\nDuration : 32mn 49s\nBit rate mode : Variable\nBit rate : 4 014 Kbps\nMaximum bit rate : 8 040 Kbps\nWidth : 720 pixels\nHeight : 480 pixels\nDisplay aspect ratio : 4:3\nFrame rate : 29.970 fps\nStandard : NTSC\nColor space : YUV\nChroma subsampling : 4:2:0\nBit depth : 8 bits\nScan type : Interlaced\nScan order : Top Field First\nCompression mode : Lossy\nBits/(Pixel*Frame) : 0.388\nStream size : 942 MiB (92%)\n\nAudio\nID : 189 (0xBD)-128 (0x80)\nFormat : AC-3\nFormat/Info : Audio Coding 3\nMode extension : CM (complete main)\nMuxing mode : DVD-Video\nDuration : 32mn 49s\nBit rate mode : Constant\nBit rate : 256 Kbps\nChannel(s) : 2 channels\nChannel positions : Front: L R\nSampling rate : 48.0 KHz\nBit depth : 16 bits\nCompression mode : Lossy\nDelay relative to video : -66ms\nStream size : 60.1 MiB (6%)","torrent":{"xt":"urn:btih:2b872083e0653db19ea2df29366794161f6d5206","amp;dn":"Journey+Vina+del+Mar+Chile+2008+DVD+PRO","amp;tr":["udp%3A%2F%2Ftracker.openbittorrent.com%3A80","udp%3A%2F%2Fopen.demonii.com%3A1337","udp%3A%2F%2Ftracker.coppersurfer.tk%3A6969","udp%3A%2F%2Fexodus.desync.com%3A6969"],"infoHash":"2b872083e0653db19ea2df29366794161f6d5206","infoHashBuffer":{"type":"Buffer","data":[43,135,32,131,224,101,61,177,158,162,223,41,54,103,148,22,31,109,82,6]},"announce":[],"urlList":[]}}